<svg xmlns="http://www.w3.org/2000/svg" width="32" height="32" viewBox="0 0 32 32">
    <g data-name="Group 9433" transform="translate(-3694 -13231)">
        <circle data-name="Ellipse 440" cx="16" cy="16" r="16" transform="translate(3694 13231)" style="fill:#1da1f2"/>
        <g data-name="Group 8862">
            <path data-name="Path 2122" d="M38.937 35.359a5.663 5.663 0 0 1-1.63.446 2.846 2.846 0 0 0 1.248-1.57 5.682 5.682 0 0 1-1.8.689 2.841 2.841 0 0 0-4.837 2.589 8.057 8.057 0 0 1-5.85-2.966 2.841 2.841 0 0 0 .878 3.789 2.818 2.818 0 0 1-1.285-.355v.036a2.84 2.84 0 0 0 2.274 2.783 2.849 2.849 0 0 1-1.282.049A2.841 2.841 0 0 0 29.3 42.82 5.729 5.729 0 0 1 25.1 44a8.071 8.071 0 0 0 12.426-6.8c0-.123 0-.246-.008-.367a5.755 5.755 0 0 0 1.416-1.469z" transform="translate(3677.98 13207.351)" style="fill:#fff"/>
        </g>
    </g>
</svg>
